<svg width="37" height="38" viewBox="0 0 37 38" fill="none" xmlns="http://www.w3.org/2000/svg">
<g id="mingcute:eye-line">
<g id="Group">
<path id="Vector" d="M18.4999 6.66602C22.7965 6.66602 26.6137 8.60389 29.3317 11.0027C30.696 12.2068 31.8199 13.5588 32.6123 14.9047C33.3909 16.2259 33.9166 17.6581 33.9166 18.9993C33.9166 20.3406 33.3924 21.7728 32.6123 23.094C31.8199 24.4399 30.696 25.7919 29.3317 26.996C26.6137 29.3948 22.795 31.3327 18.4999 31.3327C14.2033 31.3327 10.3861 29.3948 7.66817 26.996C6.30379 25.7919 5.17992 24.4399 4.3875 23.094C3.60742 21.7728 3.08325 20.3406 3.08325 18.9993C3.08325 17.6581 3.60742 16.2259 4.3875 14.9047C5.17992 13.5588 6.30379 12.2068 7.66817 11.0027C10.3861 8.60389 14.2048 6.66602 18.4999 6.66602ZM18.4999 9.74935C15.1329 9.74935 12.0126 11.2802 9.70934 13.3137C8.56234 14.325 7.65584 15.4304 7.04379 16.4695C6.41788 17.5332 6.16659 18.4135 6.16659 18.9993C6.16659 19.5852 6.41788 20.4655 7.04379 21.5292C7.65584 22.5683 8.56234 23.6721 9.70934 24.685C12.0126 26.7185 15.1329 28.2493 18.4999 28.2493C21.8669 28.2493 24.9873 26.7185 27.2905 24.685C28.4375 23.6721 29.344 22.5683 29.956 21.5292C30.582 20.4655 30.8333 19.5852 30.8333 18.9993C30.8333 18.4135 30.582 17.5332 29.956 16.4695C29.344 15.4304 28.4375 14.3266 27.2905 13.3137C24.9873 11.2802 21.8669 9.74935 18.4999 9.74935ZM18.4999 14.3743C18.6356 14.3743 18.7697 14.38 18.9023 14.3913C18.5676 14.9785 18.4351 15.6593 18.5251 16.3292C18.6152 16.999 18.9228 17.6207 19.4007 18.0986C19.8786 18.5765 20.5003 18.8841 21.1701 18.9742C21.8399 19.0642 22.5208 18.9317 23.108 18.597C23.189 19.5253 22.9878 20.4565 22.5306 21.2685C22.0734 22.0805 21.3815 22.7355 20.5457 23.1476C19.7099 23.5596 18.7691 23.7096 17.8466 23.5779C16.9241 23.4461 16.0629 23.0388 15.3758 22.4092C14.6888 21.7796 14.208 20.9572 13.9963 20.0497C13.7847 19.1421 13.8522 18.1918 14.1899 17.3233C14.5276 16.4548 15.1198 15.7085 15.8888 15.1823C16.6579 14.6561 17.568 14.3745 18.4999 14.3743Z" fill="#A89156" fill-opacity="0.5"/>
</g>
</g>
</svg>
